<svg width="22" height="22" viewBox="0 0 22 22" fill="none" xmlns="http://www.w3.org/2000/svg">
<circle cx="11" cy="11" r="11" fill="#EE5A24"/>
<path d="M14.5695 7.30859L13.8044 16.0267H8.19557L7.43066 7.30859L6.46143 7.39355L7.2403 16.2698C7.28129 16.6789 7.63628 16.9997 8.04866 16.9997H13.9514C14.3636 16.9997 14.7187 16.6791 14.7604 16.264L15.5388 7.39355L14.5695 7.30859Z" fill="white"/>
<path d="M12.7839 5H9.21634C8.76924 5 8.40552 5.36373 8.40552 5.81082V7.35137H9.37848V5.97296H12.6217V7.35134H13.5947V5.8108C13.5947 5.36373 13.231 5 12.7839 5Z" fill="white"/>
<path d="M16.1893 6.86475H5.81095C5.54224 6.86475 5.32446 7.08253 5.32446 7.35124C5.32446 7.61995 5.54224 7.83773 5.81095 7.83773H16.1893C16.458 7.83773 16.6758 7.61995 16.6758 7.35124C16.6758 7.08253 16.458 6.86475 16.1893 6.86475Z" fill="white"/>
</svg>
