<svg width="29" height="29" viewBox="0 0 29 29" fill="none" xmlns="http://www.w3.org/2000/svg">
<path d="M2 18H7C7.55228 18 8 17.5523 8 17V14.5V12C8 11.4477 7.55228 11 7 11H4.5H2C1.44772 11 1 11.4477 1 12V17C1 17.5523 1.44772 18 2 18Z" stroke="#EE5A24"/>
<path d="M12 28H17C17.5523 28 18 27.5523 18 27V24.5V22C18 21.4477 17.5523 21 17 21H14.5H12C11.4477 21 11 21.4477 11 22V27C11 27.5523 11.4477 28 12 28Z" stroke="#EE5A24"/>
<path d="M22 8H27C27.5523 8 28 7.55229 28 7V4.5V2C28 1.44772 27.5523 1 27 1H24.5H22C21.4477 1 21 1.44772 21 2V7C21 7.55229 21.4477 8 22 8Z" stroke="#EE5A24"/>
<path d="M22 18H27C27.5523 18 28 17.5523 28 17V14.5V12C28 11.4477 27.5523 11 27 11H24.5H22C21.4477 11 21 11.4477 21 12V17C21 17.5523 21.4477 18 22 18Z" stroke="#EE5A24"/>
<path d="M22 28H27C27.5523 28 28 27.5523 28 27V24.5V22C28 21.4477 27.5523 21 27 21H24.5H22C21.4477 21 21 21.4477 21 22V27C21 27.5523 21.4477 28 22 28Z" stroke="#EE5A24"/>
<path d="M2 28H7C7.55228 28 8 27.5523 8 27V24.5V22C8 21.4477 7.55228 21 7 21H4.5H2C1.44772 21 1 21.4477 1 22V27C1 27.5523 1.44772 28 2 28Z" stroke="#EE5A24"/>
<path d="M2 8H7C7.55228 8 8 7.55229 8 7V4.5V2C8 1.44772 7.55228 1 7 1H4.5H2C1.44772 1 1 1.44772 1 2V7C1 7.55229 1.44772 8 2 8Z" stroke="#EE5A24"/>
<path d="M12 8H17C17.5523 8 18 7.55229 18 7V4.5V2C18 1.44772 17.5523 1 17 1H14.5H12C11.4477 1 11 1.44772 11 2V7C11 7.55229 11.4477 8 12 8Z" stroke="#EE5A24"/>
<path d="M12 18H17C17.5523 18 18 17.5523 18 17V14.5V12C18 11.4477 17.5523 11 17 11H14.5H12C11.4477 11 11 11.4477 11 12V17C11 17.5523 11.4477 18 12 18Z" stroke="#EE5A24"/>
</svg>
