<svg width="29" height="29" viewBox="0 0 29 29" fill="none" xmlns="http://www.w3.org/2000/svg">
<path d="M2 18H27C27.5523 18 28 17.5523 28 17V14.5V12C28 11.4477 27.5523 11 27 11H14.5H2C1.44772 11 1 11.4477 1 12V17C1 17.5523 1.44771 18 2 18Z" stroke="#EE5A24"/>
<path d="M2 28H27C27.5523 28 28 27.5523 28 27V24.5V22C28 21.4477 27.5523 21 27 21H14.5H2C1.44772 21 1 21.4477 1 22V27C1 27.5523 1.44771 28 2 28Z" stroke="#EE5A24"/>
<path d="M2 8H27C27.5523 8 28 7.55229 28 7V4.5V2C28 1.44772 27.5523 1 27 1H14.5H2C1.44772 1 1 1.44772 1 2V7C1 7.55229 1.44771 8 2 8Z" stroke="#EE5A24"/>
</svg>
