<svg width="30" height="30" viewBox="0 0 30 30" fill="none" xmlns="http://www.w3.org/2000/svg">
<path d="M13.1908 3.15141C14.0468 3.15141 14.7472 2.45103 14.7472 1.59499C14.7472 0.738963 14.0468 0.0385742 13.1908 0.0385742C12.9573 0.0385742 12.8017 0.194216 12.8017 0.427679C12.8017 0.661142 12.9573 0.816784 13.1908 0.816784C13.6188 0.816784 13.969 1.16698 13.969 1.59499C13.969 2.02301 13.6188 2.3732 13.1908 2.3732C12.3347 2.3732 11.6344 3.07359 11.6344 3.92962C11.5954 4.78566 12.2958 5.48604 13.1908 5.48604C13.4242 5.48604 13.5799 5.3304 13.5799 5.09694C13.5799 4.86348 13.4242 4.70783 13.1908 4.70783C12.7628 4.70783 12.4126 4.35764 12.4126 3.92962C12.4126 3.50161 12.7628 3.15141 13.1908 3.15141Z" fill="#EE5A24"/>
<path d="M16.2647 3.11284C17.1207 3.11284 17.8211 2.41245 17.8211 1.55642C17.8211 0.700389 17.1207 0 16.2647 0C16.0312 0 15.8756 0.155642 15.8756 0.389105C15.8756 0.622568 16.0312 0.77821 16.2647 0.77821C16.6927 0.77821 17.0429 1.1284 17.0429 1.55642C17.0429 1.98444 16.6927 2.33463 16.2647 2.33463C15.4086 2.33463 14.7083 3.03502 14.7083 3.89105C14.7083 4.74708 15.4086 5.44747 16.2647 5.44747C16.4981 5.44747 16.6538 5.29183 16.6538 5.05837C16.6538 4.8249 16.4981 4.66926 16.2647 4.66926C15.8367 4.66926 15.4865 4.31907 15.4865 3.89105C15.4865 3.46303 15.8367 3.11284 16.2647 3.11284Z" fill="#EE5A24"/>
<path d="M29.2608 20.3502H25.9924V16.6926H28.0157C28.2492 16.6926 28.4048 16.537 28.4048 16.3035V11.8288C28.4048 11.5953 28.2492 11.4397 28.0157 11.4397H27.004V7.39301C27.004 7.15955 26.8484 7.00391 26.6149 7.00391H1.75112C1.51766 7.00391 1.36201 7.15955 1.36201 7.39301V11.8288C1.36201 12.0623 1.51766 12.2179 1.75112 12.2179H2.76279V15.8755H0.739447C0.505984 15.8755 0.350342 16.0311 0.350342 16.2646V20.7004C0.350342 20.9339 0.505984 21.0895 0.739447 21.0895H4.00793V24.7471H2.37369C2.14022 24.7471 1.98458 24.9027 1.98458 25.1362V29.6109C1.98458 29.8444 2.14022 30 2.37369 30H27.2375C27.471 30 27.6266 29.8444 27.6266 29.6109V25.5642H29.2608C29.4943 25.5642 29.6499 25.4086 29.6499 25.1751V20.7393C29.6499 20.5059 29.4554 20.3502 29.2608 20.3502ZM27.6266 12.2179V15.8755H3.541V12.2179H26.576H27.6266ZM2.14022 11.4397V7.78212H26.1869V11.4397H3.1519H2.14022ZM1.12855 20.3502V16.6926H25.1752V20.3502H1.12855ZM26.8484 29.2218H2.76279V25.5642H4.35812C4.35812 25.5642 4.35812 25.5642 4.39703 25.5642H26.8484V29.2218ZM28.8717 24.786H27.2375C27.2375 24.786 27.2375 24.786 27.1986 24.786H4.82505V21.1284H28.8717V24.786Z" fill="#EE5A24"/>
</svg>
