<svg width="16" height="16" viewBox="0 0 16 16" fill="none" xmlns="http://www.w3.org/2000/svg">
<path d="M14.1627 0.644066C13.3026 -0.214689 11.9096 -0.214689 11.0494 0.644066L10.2701 1.42775L1.9741 9.72009L1.95647 9.73786C1.9522 9.74213 1.9522 9.74668 1.94766 9.74668C1.93884 9.7599 1.92562 9.77299 1.91694 9.78621C1.91694 9.79062 1.9124 9.79062 1.9124 9.79503C1.90358 9.80825 1.89931 9.81707 1.89036 9.83029C1.88609 9.8347 1.88609 9.83897 1.88168 9.84352C1.87727 9.85674 1.87286 9.86556 1.86832 9.87878C1.86832 9.88305 1.86405 9.88305 1.86405 9.8876L0.0234238 15.4231C-0.0305705 15.5807 0.0104762 15.7552 0.129071 15.8722C0.212404 15.9544 0.3248 16.0004 0.441741 16C0.489537 15.9992 0.53692 15.9917 0.58265 15.978L6.11334 14.1327C6.11761 14.1327 6.11761 14.1327 6.12215 14.1285C6.13607 14.1243 6.14943 14.1184 6.16169 14.1107C6.16513 14.1103 6.16816 14.1088 6.17064 14.1064C6.18372 14.0976 6.20136 14.0887 6.21458 14.0799C6.22766 14.0712 6.24102 14.0579 6.25425 14.0491C6.25866 14.0446 6.26293 14.0446 6.26293 14.0403C6.26747 14.0359 6.27629 14.0316 6.28069 14.0227L15.356 4.94652C16.2147 4.08625 16.2147 2.69315 15.356 1.83302L14.1627 0.644066ZM5.97243 13.0978L2.90771 10.0329L10.5783 2.36158L13.6431 5.42645L5.97243 13.0978ZM2.47603 10.8476L5.15343 13.5251L1.13306 14.8638L2.47603 10.8476ZM14.7352 4.32994L14.2684 4.80119L11.2035 1.73604L11.6749 1.26492C12.1904 0.749723 13.0261 0.749723 13.5418 1.26492L14.7395 2.46269C15.2512 2.98064 15.2492 3.81446 14.7352 4.32994Z" fill="white"/>
</svg>
