<svg width="48" height="48" viewBox="0 0 48 48" fill="none" xmlns="http://www.w3.org/2000/svg">
<g filter="url(#filter0_d)">
<path d="M24 0C12.9715 0 4 8.97154 4 20C4 23.7623 5.04538 27.4146 7.02846 30.5862C6.23846 33.3538 4.81154 38.5892 4.79615 38.6438C4.72231 38.9146 4.80154 39.2038 5.00385 39.3985C5.20615 39.5931 5.49846 39.6623 5.76462 39.5808L13.6923 37.1423C16.7977 39.0131 20.3538 40 24 40C35.0285 40 44 31.0285 44 20C44 8.97154 35.0285 0 24 0ZM24 38.4615C20.5238 38.4615 17.1377 37.49 14.2069 35.6531C14.0831 35.5754 13.9408 35.5362 13.7985 35.5362C13.7223 35.5362 13.6462 35.5477 13.5723 35.57L6.65 37.7008C7.15846 35.8446 8.07231 32.5246 8.60231 30.6777C8.66385 30.4638 8.62923 30.2331 8.50846 30.0462C6.56538 27.0562 5.53846 23.5823 5.53846 20C5.53846 9.82077 13.8208 1.53846 24 1.53846C34.1792 1.53846 42.4615 9.82077 42.4615 20C42.4615 30.1792 34.1792 38.4615 24 38.4615Z" fill="white"/>
<path d="M37.0654 24.7124C35.6454 23.9239 34.4362 23.1332 33.5538 22.5562C32.88 22.1162 32.3931 21.7985 32.0362 21.6193C31.0385 21.1216 30.2823 21.4732 29.9946 21.7639C29.9585 21.8001 29.9262 21.8393 29.8985 21.8809C28.8623 23.4355 27.5092 24.9224 27.1131 25.0024C26.6554 24.9309 24.5131 23.7132 22.3838 21.9401C20.21 20.1285 18.8423 18.3939 18.6415 17.2124C20.0362 15.777 20.5385 14.8739 20.5385 13.8462C20.5385 12.787 18.0677 8.3647 17.6208 7.91777C17.1723 7.47008 16.1623 7.40008 14.6185 7.70777C14.47 7.73777 14.3331 7.81085 14.2254 7.91777C14.0385 8.1047 9.66461 12.5639 11.7431 17.9685C14.0246 23.9001 19.8808 30.7947 27.3469 31.9147C28.1954 32.0416 28.9908 32.1047 29.7354 32.1047C34.1277 32.1047 36.72 29.8947 37.45 25.5109C37.5046 25.1901 37.35 24.8701 37.0654 24.7124ZM27.5754 30.3932C19.68 29.2093 14.7069 21.387 13.1792 17.4162C11.6638 13.4778 14.4585 9.96624 15.16 9.17239C15.7308 9.07547 16.3315 9.0347 16.5823 9.07393C17.1062 9.80239 18.92 13.2293 19 13.8462C19 14.2501 18.8685 14.8124 17.3023 16.3793C17.1577 16.5232 17.0769 16.7185 17.0769 16.9232C17.0769 20.9509 25.5723 26.5385 27.0769 26.5385C28.3854 26.5385 30.0915 24.3393 31.0631 22.9062C31.1192 22.9085 31.2138 22.9278 31.3485 22.9955C31.6254 23.1347 32.1054 23.4478 32.7123 23.8447C33.5138 24.3685 34.5785 25.0639 35.8354 25.7847C35.2646 28.5309 33.6692 31.3085 27.5754 30.3932Z" fill="white"/>
</g>
<defs>
<filter id="filter0_d" x="0" y="0" width="48" height="48" filterUnits="userSpaceOnUse" color-interpolation-filters="sRGB">
<feFlood flood-opacity="0" result="BackgroundImageFix"/>
<feColorMatrix in="SourceAlpha" type="matrix" values="0 0 0 0 0 0 0 0 0 0 0 0 0 0 0 0 0 0 127 0"/>
<feOffset dy="4"/>
<feGaussianBlur stdDeviation="2"/>
<feColorMatrix type="matrix" values="0 0 0 0 0 0 0 0 0 0 0 0 0 0 0 0 0 0 0.25 0"/>
<feBlend mode="normal" in2="BackgroundImageFix" result="effect1_dropShadow"/>
<feBlend mode="normal" in="SourceGraphic" in2="effect1_dropShadow" result="shape"/>
</filter>
</defs>
</svg>
